<svg viewBox="0 0 448 512" <path d="m192 188v216c0 6.627-5.373 12-12 12h-24c-6.627 0-12-5.373-12-12v-216c0-6.627 5.373-12 12-12h24c6.627 0 12 5.373 12 12zm100-12h-24c-6.627 0-12 5.373-12 12v216c0 6.627 5.373 12 12 12h24c6.627 0 12-5.373 12-12v-216c0-6.627-5.373-12-12-12zm132-96c13.255 0 24 10.745 24 24v12c0 6.627-5.373 12-12 12h-20v336c0 26.51-21.49 48-48 48h-288c-26.51 0-48-21.49-48-48v-336h-20c-6.627 0-12-5.373-12-12v-12c0-13.255 10.745-24 24-24h74.411l34.018-56.696a48 48 0 0 1 41.16-23.304h100.823a48 48 0 0 1 41.16 23.304l34.017 56.696zm-269.611 0h139.223l-17.452-29.087a6 6 0 0 0 -5.145-2.913h-94.028a6 6 0 0 0 -5.145 2.913zm213.611 48h-288v330a6 6 0 0 0 6 6h276a6 6 0 0 0 6-6z"/></svg>